<?xml version="1.0" encoding="UTF-8" standalone="no"?>
<!-- Generator: Adobe Illustrator 12.0.1, SVG Export Plug-In . SVG Version: 6.00 Build 51448)  -->
<svg
   xmlns:dc="http://purl.org/dc/elements/1.1/"
   xmlns:cc="http://web.resource.org/cc/"
   xmlns:rdf="http://www.w3.org/1999/02/22-rdf-syntax-ns#"
   xmlns:svg="http://www.w3.org/2000/svg"
   xmlns="http://www.w3.org/2000/svg"
   xmlns:sodipodi="http://sodipodi.sourceforge.net/DTD/sodipodi-0.dtd"
   xmlns:inkscape="http://www.inkscape.org/namespaces/inkscape"
   version="1.1"
   id="Layer_1"
   width="385.15"
   height="178.2"
   viewBox="0 0 385.15 178.2"
   style="overflow:visible;enable-background:new 0 0 385.15 178.2;"
   xml:space="preserve"
   sodipodi:version="0.32"
   inkscape:version="0.45.1"
   sodipodi:docname="Cellulose Sessel.svg"
   inkscape:output_extension="org.inkscape.output.svg.inkscape"
   sodipodi:docbase="C:\"><metadata
   id="metadata114"><rdf:RDF><cc:Work
       rdf:about=""><dc:format>image/svg+xml</dc:format><dc:type
         rdf:resource="http://purl.org/dc/dcmitype/StillImage" /></cc:Work></rdf:RDF></metadata><defs
   id="defs112" /><sodipodi:namedview
   inkscape:window-height="579"
   inkscape:window-width="801"
   inkscape:pageshadow="2"
   inkscape:pageopacity="0.0"
   guidetolerance="10.0"
   gridtolerance="10.0"
   objecttolerance="10.0"
   borderopacity="1.0"
   bordercolor="#666666"
   pagecolor="#ffffff"
   id="base"
   inkscape:zoom="1.8616124"
   inkscape:cx="192.575"
   inkscape:cy="89.099998"
   inkscape:window-x="132"
   inkscape:window-y="132"
   inkscape:current-layer="Layer_1" />
<path
   style="fill:#231f20"
   d="M 212.5953,102.25752 L 210.79125,103.73097 L 210.41125,102.78097 L 228.03375,72.237525 L 229.64875,71.050025 L 230.02875,72.000025 L 212.5953,102.25752 z "
   id="polygon3" />
<path
   style="fill:#231f20"
   d="M 245.03875,90.857525 L 247.22375,93.945025 L 243.75625,98.315025 L 210.74375,104.53847 L 210.79125,103.73097 L 212.5953,102.25752 L 245.03875,90.857525 z "
   id="polygon5" />
<path
   style="fill:#231f20"
   d="M 265.65375,79.885025 L 266.03375,80.835025 L 266.03375,81.642525 L 230.02875,72.000025 L 229.64875,71.050025 L 229.64875,70.242525 L 265.65375,79.885025 z "
   id="polygon7" />
<g
   id="g9"
   transform="matrix(0.95,0,0,0.95,9.62875,4.455025)">
	<path
   style="fill:#231f20"
   d="M 280.206,105.585 C 280.206,102.732 280.972,100.5 282.504,98.887 C 284.036,97.273 286.014,96.466 288.437,96.466 C 290.024,96.466 291.455,96.845 292.728,97.603 C 294.001,98.362 294.973,99.418 295.642,100.774 C 296.31,102.129 296.644,103.668 296.644,105.386 C 296.644,107.129 296.292,108.688 295.589,110.063 C 294.885,111.438 293.888,112.48 292.599,113.187 C 291.309,113.894 289.917,114.248 288.425,114.248 C 286.807,114.248 285.361,113.857 284.087,113.076 C 282.813,112.295 281.848,111.227 281.191,109.876 C 280.534,108.523 280.206,107.094 280.206,105.585 z M 282.55,105.614 C 282.55,107.684 283.107,109.315 284.221,110.507 C 285.335,111.699 286.733,112.294 288.413,112.294 C 290.125,112.294 291.534,111.692 292.641,110.489 C 293.748,109.286 294.3,107.579 294.3,105.368 C 294.3,103.97 294.064,102.749 293.591,101.706 C 293.117,100.663 292.425,99.854 291.515,99.28 C 290.605,98.706 289.582,98.419 288.449,98.419 C 286.839,98.419 285.453,98.972 284.292,100.077 C 283.131,101.182 282.55,103.028 282.55,105.614 z "
   id="path11" />
</g>
<path
   style="fill:#231f20"
   d="M 274.67875,98.838475 L 273.44375,103.49347 L 246.74875,96.368475 L 247.22375,93.945025 L 245.03875,90.857525 L 274.67875,98.838475 z "
   id="polygon13" />
<path
   style="fill:#231f20"
   d="M 302.46625,70.242525 L 302.46625,71.050025 L 300.47125,72.427525 L 266.03375,81.642525 L 266.03375,80.835025 L 267.74375,79.552525 L 302.46625,70.242525 z "
   id="polygon15" />
<path
   style="fill:#231f20"
   d="M 291.73125,96.938475 L 285.46125,93.280975 L 300.47125,72.427525 L 302.46625,71.050025 L 302.94125,72.047525 L 291.73125,96.938475 z "
   id="polygon17" />
<g
   id="g19"
   transform="matrix(0.95,0,0,0.95,9.62875,4.455025)">
	<path
   style="fill:#231f20"
   d="M 165.206,95.284 C 165.206,92.431 165.972,90.199 167.504,88.586 C 169.036,86.972 171.014,86.165 173.437,86.165 C 175.024,86.165 176.454,86.544 177.728,87.302 C 179.002,88.061 179.973,89.117 180.642,90.473 C 181.311,91.829 181.644,93.367 181.644,95.085 C 181.644,96.828 181.292,98.387 180.589,99.762 C 179.886,101.137 178.889,102.179 177.599,102.886 C 176.309,103.593 174.918,103.947 173.425,103.947 C 171.807,103.947 170.361,103.556 169.087,102.775 C 167.813,101.994 166.848,100.926 166.191,99.575 C 165.534,98.224 165.206,96.793 165.206,95.284 z M 167.55,95.313 C 167.55,97.383 168.107,99.014 169.221,100.206 C 170.335,101.398 171.733,101.993 173.413,101.993 C 175.125,101.993 176.534,101.391 177.641,100.188 C 178.747,98.985 179.3,97.278 179.3,95.067 C 179.3,93.669 179.064,92.448 178.591,91.405 C 178.118,90.362 177.426,89.553 176.515,88.979 C 175.604,88.405 174.582,88.118 173.449,88.118 C 171.839,88.118 170.453,88.671 169.292,89.776 C 168.131,90.881 167.55,92.728 167.55,95.313 z "
   id="path21" />
</g>
<path
   style="fill:#231f20"
   d="M 184.19125,97.413475 L 184.61875,95.845025 L 210.41125,102.78097 L 210.79125,103.73097 L 210.74375,104.53847 L 184.19125,97.413475 z "
   id="polygon23" />
<path
   style="fill:#231f20"
   d="M 137.97375,104.53847 L 137.97375,103.73097 L 138.35375,102.78097 L 164.19375,95.845025 L 164.62125,97.413475 L 137.97375,104.53847 z "
   id="polygon25" />
<g
   id="g27"
   transform="matrix(0.95,0,0,0.95,9.62875,4.455025)">
	<path
   style="fill:#231f20"
   d="M 107.006,71.185 C 107.006,68.332 107.772,66.1 109.304,64.487 C 110.836,62.873 112.814,62.066 115.237,62.066 C 116.824,62.066 118.254,62.445 119.528,63.203 C 120.802,63.962 121.773,65.018 122.442,66.374 C 123.111,67.73 123.444,69.268 123.444,70.986 C 123.444,72.729 123.092,74.288 122.389,75.663 C 121.686,77.038 120.689,78.08 119.399,78.787 C 118.109,79.494 116.718,79.848 115.225,79.848 C 113.607,79.848 112.161,79.457 110.887,78.676 C 109.613,77.895 108.648,76.827 107.991,75.476 C 107.334,74.125 107.006,72.693 107.006,71.185 z M 109.35,71.214 C 109.35,73.284 109.907,74.915 111.021,76.107 C 112.135,77.299 113.533,77.894 115.213,77.894 C 116.925,77.894 118.334,77.292 119.441,76.089 C 120.547,74.886 121.1,73.179 121.1,70.968 C 121.1,69.57 120.864,68.349 120.391,67.306 C 119.918,66.263 119.226,65.454 118.315,64.88 C 117.404,64.306 116.382,64.019 115.249,64.019 C 113.639,64.019 112.253,64.572 111.092,65.677 C 109.931,66.782 109.35,68.628 109.35,71.214 z "
   id="path29" />
</g>
<path
   style="fill:#231f20"
   d="M 124.10375,81.310025 L 125.48125,80.502525 L 138.35375,102.78097 L 137.97375,103.73097 L 136.16875,102.25752 L 124.10375,81.310025 z "
   id="polygon31" />
<path
   style="fill:#231f20"
   d="M 104.96125,98.315025 L 101.54125,93.945025 L 103.67875,90.857525 L 136.16875,102.25752 L 137.97375,103.73097 L 137.97375,104.53847 L 104.96125,98.315025 z "
   id="polygon33" />
<path
   style="fill:#231f20"
   d="M 82.68375,81.642525 L 82.68375,80.835025 L 83.06375,79.885025 L 108.90375,72.950025 L 109.33125,74.517525 L 82.68375,81.642525 z "
   id="polygon35" />
<path
   style="fill:#231f20"
   d="M 68.76625,105.25097 L 65.1078,103.73097 L 67.38875,100.59502 L 103.67875,90.857525 L 101.54125,93.945025 L 101.96875,96.368475 L 68.76625,105.25097 z "
   id="polygon37" />
<path
   style="fill:#231f20"
   d="M 45.82375,72.000025 L 46.25125,71.050025 L 48.15125,72.427525 L 67.38875,100.59502 L 65.1078,103.73097 L 60.26375,101.97157 L 45.82375,72.000025 z "
   id="polygon39" />
<path
   style="fill:#231f20"
   d="M 81.0203,79.552525 L 82.68375,80.835025 L 82.68375,81.642525 L 48.15125,72.427525 L 46.25125,71.050025 L 46.25125,70.242525 L 81.0203,79.552525 z "
   id="polygon41" />
<g
   id="g43"
   transform="matrix(0.95,0,0,0.95,9.62875,4.455025)">
	<path
   style="fill:#231f20"
   d="M 108.356,129.685 C 108.356,126.832 109.122,124.6 110.654,122.987 C 112.186,121.373 114.164,120.566 116.587,120.566 C 118.174,120.566 119.604,120.945 120.878,121.703 C 122.152,122.462 123.123,123.518 123.792,124.874 C 124.461,126.23 124.794,127.768 124.794,129.486 C 124.794,131.229 124.442,132.788 123.739,134.163 C 123.036,135.538 122.039,136.58 120.749,137.287 C 119.459,137.994 118.068,138.348 116.575,138.348 C 114.957,138.348 113.511,137.957 112.237,137.176 C 110.963,136.395 109.998,135.327 109.341,133.976 C 108.684,132.625 108.356,131.193 108.356,129.685 z M 110.7,129.714 C 110.7,131.784 111.257,133.415 112.371,134.607 C 113.485,135.799 114.883,136.394 116.563,136.394 C 118.275,136.394 119.684,135.792 120.791,134.589 C 121.897,133.386 122.45,131.679 122.45,129.468 C 122.45,128.07 122.214,126.849 121.741,125.806 C 121.268,124.763 120.576,123.954 119.665,123.38 C 118.754,122.806 117.732,122.519 116.599,122.519 C 114.989,122.519 113.603,123.072 112.442,124.177 C 111.281,125.282 110.7,127.128 110.7,129.714 z "
   id="path45" />
	<path
   style="fill:#231f20"
   d="M 127.805,138.05 L 127.805,120.862 L 130.086,120.862 L 130.086,127.925 L 138.977,127.925 L 138.977,120.862 L 141.258,120.862 L 141.258,138.05 L 138.977,138.05 L 138.977,129.956 L 130.086,129.956 L 130.086,138.05 L 127.805,138.05 z "
   id="path47" />
</g>
<path
   style="fill:#231f20"
   d="M 116.12375,117.60097 L 114.74625,118.40752 L 101.96875,96.368475 L 101.54125,93.945025 L 104.96125,98.315025 L 116.12375,117.60097 z "
   id="polygon49" />
<path
   style="fill:#231f20"
   d="M 10.05625,81.595025 L 9.62875,80.027525 L 46.25125,70.242525 L 46.25125,71.050025 L 45.82375,72.000025 L 10.05625,81.595025 z "
   id="polygon51" />
<g
   id="g53"
   transform="matrix(0.95,0,0,0.95,9.62875,4.455025)">
	<path
   style="fill:#231f20"
   d="M 9.337,109.2 L 9.337,92.013 L 11.618,92.013 L 11.618,99.076 L 20.509,99.076 L 20.509,92.013 L 22.79,92.013 L 22.79,109.2 L 20.509,109.2 L 20.509,101.106 L 11.618,101.106 L 11.618,109.2 L 9.337,109.2 z "
   id="path55" />
	<path
   style="fill:#231f20"
   d="M 25.888,100.835 C 25.888,97.982 26.654,95.75 28.186,94.137 C 29.718,92.523 31.696,91.716 34.119,91.716 C 35.706,91.716 37.136,92.095 38.41,92.853 C 39.684,93.612 40.655,94.668 41.324,96.024 C 41.993,97.38 42.326,98.918 42.326,100.636 C 42.326,102.379 41.974,103.938 41.271,105.313 C 40.568,106.688 39.571,107.73 38.281,108.437 C 36.991,109.144 35.6,109.498 34.107,109.498 C 32.489,109.498 31.043,109.107 29.769,108.326 C 28.495,107.545 27.53,106.477 26.873,105.126 C 26.216,103.775 25.888,102.344 25.888,100.835 z M 28.232,100.864 C 28.232,102.934 28.789,104.565 29.903,105.757 C 31.017,106.949 32.415,107.544 34.095,107.544 C 35.807,107.544 37.216,106.942 38.323,105.739 C 39.429,104.536 39.982,102.829 39.982,100.618 C 39.982,99.22 39.746,97.999 39.273,96.956 C 38.8,95.913 38.108,95.104 37.197,94.53 C 36.286,93.956 35.264,93.669 34.131,93.669 C 32.521,93.669 31.135,94.222 29.974,95.327 C 28.813,96.432 28.232,98.278 28.232,100.864 z "
   id="path57" />
</g>
<path
   style="fill:#231f20"
   d="M 51.85625,101.97157 L 52.14125,100.40597 L 60.26375,101.97157 L 65.1078,103.73097 L 68.76625,105.25097 L 51.85625,101.97157 z "
   id="polygon59" />
<path
   style="fill:#231f20"
   d="M 62.92375,48.155025 L 64.77625,48.155025 L 83.06375,79.885025 L 82.68375,80.835025 L 81.0203,79.552525 L 62.92375,48.155025 z "
   id="polygon61" />
<g
   id="g63"
   transform="matrix(0.95,0,0,0.95,9.62875,4.455025)">
	<path
   style="fill:#231f20"
   d="M 183.887,84.3 L 183.887,67.112 L 186.168,67.112 L 186.168,74.175 L 195.059,74.175 L 195.059,67.112 L 197.341,67.112 L 197.341,84.3 L 195.059,84.3 L 195.059,76.206 L 186.168,76.206 L 186.168,84.3 L 183.887,84.3 z "
   id="path65" />
	<path
   style="fill:#231f20"
   d="M 200.438,75.935 C 200.438,73.082 201.204,70.85 202.735,69.237 C 204.268,67.623 206.245,66.816 208.669,66.816 C 210.255,66.816 211.686,67.195 212.96,67.953 C 214.233,68.712 215.204,69.768 215.873,71.124 C 216.542,72.48 216.876,74.018 216.876,75.736 C 216.876,77.479 216.524,79.038 215.82,80.413 C 215.116,81.788 214.12,82.83 212.831,83.537 C 211.54,84.244 210.149,84.598 208.657,84.598 C 207.038,84.598 205.593,84.207 204.319,83.426 C 203.044,82.645 202.079,81.577 201.423,80.226 C 200.767,78.875 200.438,77.443 200.438,75.935 z M 202.782,75.964 C 202.782,78.034 203.339,79.665 204.452,80.857 C 205.567,82.048 206.964,82.644 208.645,82.644 C 210.356,82.644 211.766,82.042 212.872,80.839 C 213.978,79.636 214.532,77.929 214.532,75.718 C 214.532,74.32 214.296,73.099 213.822,72.056 C 213.348,71.013 212.657,70.204 211.747,69.63 C 210.836,69.056 209.813,68.769 208.681,68.769 C 207.07,68.769 205.685,69.322 204.523,70.427 C 203.362,71.532 202.782,73.378 202.782,75.964 z "
   id="path67" />
</g>
<path
   style="fill:#231f20"
   d="M 217.67875,74.327525 L 217.34625,72.760025 L 229.45875,70.290025 L 229.64875,71.050025 L 228.03375,72.237525 L 217.67875,74.327525 z "
   id="polygon69" />
<path
   style="fill:#231f20"
   d="M 229.26875,126.62597 L 227.41625,126.62597 L 243.75625,98.315025 L 247.22375,93.945025 L 246.74875,96.368475 L 229.26875,126.62597 z "
   id="polygon71" />
<g
   id="g73"
   transform="matrix(0.95,0,0,0.95,9.62875,4.455025)">
	<path
   style="fill:#231f20"
   d="M 338.356,81.484 C 338.356,78.631 339.122,76.399 340.654,74.786 C 342.186,73.172 344.164,72.365 346.587,72.365 C 348.174,72.365 349.605,72.744 350.878,73.502 C 352.151,74.261 353.123,75.317 353.792,76.673 C 354.46,78.028 354.794,79.567 354.794,81.285 C 354.794,83.028 354.442,84.587 353.739,85.962 C 353.035,87.337 352.038,88.379 350.749,89.086 C 349.459,89.793 348.067,90.147 346.575,90.147 C 344.957,90.147 343.511,89.756 342.237,88.975 C 340.963,88.194 339.998,87.126 339.341,85.775 C 338.685,84.423 338.356,82.993 338.356,81.484 z M 340.7,81.514 C 340.7,83.584 341.257,85.215 342.371,86.407 C 343.485,87.599 344.883,88.194 346.563,88.194 C 348.275,88.194 349.684,87.592 350.791,86.389 C 351.898,85.186 352.45,83.479 352.45,81.268 C 352.45,79.87 352.214,78.649 351.741,77.606 C 351.267,76.563 350.575,75.754 349.665,75.18 C 348.755,74.606 347.732,74.319 346.599,74.319 C 344.989,74.319 343.603,74.872 342.442,75.977 C 341.281,77.082 340.7,78.928 340.7,81.514 z "
   id="path75" />
</g>
<path
   style="fill:#231f20"
   d="M 329.54125,77.462525 L 329.11375,79.030025 L 302.94125,72.047525 L 302.46625,71.050025 L 302.46625,70.242525 L 329.54125,77.462525 z "
   id="polygon77" />
<g
   id="g79"
   transform="matrix(0.95,0,0,0.95,9.62875,4.455025)">
	<path
   style="fill:#231f20"
   d="M 281.556,47.085 C 281.556,44.232 282.322,42 283.855,40.387 C 285.386,38.773 287.365,37.966 289.787,37.966 C 291.375,37.966 292.805,38.345 294.078,39.103 C 295.352,39.862 296.324,40.918 296.992,42.274 C 297.66,43.63 297.994,45.168 297.994,46.886 C 297.994,48.629 297.642,50.188 296.939,51.563 C 296.236,52.938 295.239,53.98 293.949,54.687 C 292.66,55.394 291.268,55.748 289.775,55.748 C 288.158,55.748 286.711,55.357 285.437,54.576 C 284.163,53.795 283.199,52.727 282.541,51.376 C 281.883,50.025 281.556,48.594 281.556,47.085 z M 283.899,47.114 C 283.899,49.184 284.456,50.815 285.571,52.007 C 286.684,53.198 288.083,53.794 289.762,53.794 C 291.475,53.794 292.883,53.192 293.991,51.989 C 295.096,50.786 295.649,49.079 295.649,46.868 C 295.649,45.47 295.413,44.249 294.94,43.206 C 294.467,42.163 293.775,41.354 292.864,40.78 C 291.954,40.206 290.932,39.919 289.798,39.919 C 288.189,39.919 286.802,40.472 285.642,41.577 C 284.479,42.683 283.899,44.528 283.899,47.114 z "
   id="path81" />
	<path
   style="fill:#231f20"
   d="M 301.005,55.45 L 301.005,38.263 L 303.286,38.263 L 303.286,45.326 L 312.177,45.326 L 312.177,38.263 L 314.458,38.263 L 314.458,55.45 L 312.177,55.45 L 312.177,47.356 L 303.286,47.356 L 303.286,55.45 L 301.005,55.45 z "
   id="path83" />
</g>
<path
   style="fill:#231f20"
   d="M 278.57375,57.512525 L 279.95125,58.320025 L 267.74375,79.552525 L 266.03375,80.835025 L 265.65375,79.885025 L 278.57375,57.512525 z "
   id="polygon85" />
<g
   id="g87"
   transform="matrix(0.95,0,0,0.95,9.62875,4.455025)">
	<path
   style="fill:#231f20"
   d="M 68.656,12.784 C 68.656,9.931 69.422,7.699 70.954,6.086 C 72.486,4.472 74.464,3.665 76.887,3.665 C 78.474,3.665 79.904,4.044 81.178,4.802 C 82.452,5.561 83.423,6.617 84.092,7.973 C 84.761,9.329 85.094,10.867 85.094,12.585 C 85.094,14.328 84.742,15.887 84.039,17.262 C 83.336,18.637 82.339,19.679 81.049,20.386 C 79.759,21.093 78.368,21.447 76.875,21.447 C 75.257,21.447 73.811,21.056 72.537,20.275 C 71.263,19.494 70.298,18.426 69.641,17.075 C 68.984,15.724 68.656,14.293 68.656,12.784 z M 71,12.813 C 71,14.883 71.557,16.514 72.671,17.706 C 73.785,18.898 75.183,19.493 76.863,19.493 C 78.575,19.493 79.984,18.891 81.091,17.688 C 82.197,16.485 82.75,14.778 82.75,12.567 C 82.75,11.169 82.514,9.948 82.041,8.905 C 81.568,7.862 80.876,7.053 79.965,6.479 C 79.054,5.905 78.032,5.618 76.899,5.618 C 75.289,5.618 73.903,6.171 72.742,7.276 C 71.581,8.381 71,10.228 71,12.813 z "
   id="path89" />
	<path
   style="fill:#231f20"
   d="M 88.105,21.149 L 88.105,3.962 L 90.386,3.962 L 90.386,11.025 L 99.277,11.025 L 99.277,3.962 L 101.558,3.962 L 101.558,21.15 L 99.277,21.15 L 99.277,13.056 L 90.386,13.056 L 90.386,21.15 L 88.105,21.15 L 88.105,21.149 z "
   id="path91" />
</g>
<path
   style="fill:#231f20"
   d="M 76.31875,24.927525 L 77.74375,25.735025 L 64.77625,48.155025 L 62.92375,48.155025 L 76.31875,24.927525 z "
   id="polygon93" />
<g
   id="g95"
   transform="matrix(0.95,0,0,0.95,9.62875,4.455025)">
	<path
   style="fill:#231f20"
   d="M 241.856,163.984 C 241.856,161.131 242.622,158.899 244.153,157.286 C 245.686,155.672 247.663,154.865 250.087,154.865 C 251.673,154.865 253.104,155.244 254.378,156.002 C 255.651,156.761 256.622,157.817 257.291,159.173 C 257.96,160.529 258.294,162.067 258.294,163.785 C 258.294,165.528 257.942,167.087 257.238,168.462 C 256.534,169.837 255.538,170.879 254.249,171.586 C 252.958,172.293 251.567,172.647 250.075,172.647 C 248.456,172.647 247.011,172.256 245.737,171.475 C 244.462,170.694 243.497,169.626 242.841,168.275 C 242.185,166.924 241.856,165.493 241.856,163.984 z M 244.2,164.014 C 244.2,166.084 244.757,167.715 245.87,168.907 C 246.985,170.098 248.382,170.694 250.063,170.694 C 251.774,170.694 253.184,170.092 254.29,168.889 C 255.396,167.686 255.95,165.979 255.95,163.768 C 255.95,162.37 255.714,161.149 255.24,160.106 C 254.766,159.063 254.075,158.254 253.165,157.68 C 252.254,157.106 251.231,156.819 250.099,156.819 C 248.488,156.819 247.103,157.372 245.941,158.477 C 244.78,159.582 244.2,161.428 244.2,164.014 z "
   id="path97" />
	<path
   style="fill:#231f20"
   d="M 261.306,172.35 L 261.306,155.162 L 263.587,155.162 L 263.587,162.225 L 272.478,162.225 L 272.478,155.162 L 274.759,155.162 L 274.759,172.35 L 272.478,172.35 L 272.478,164.256 L 263.587,164.256 L 263.587,172.35 L 261.306,172.35 z "
   id="path99" />
</g>
<path
   style="fill:#231f20"
   d="M 242.90125,150.23252 L 241.52375,151.04002 L 227.41625,126.62597 L 229.26875,126.62597 L 242.90125,150.23252 z "
   id="polygon101" />
<path
   style="fill:#231f20"
   d="M 375.09375,70.290025 L 375.52125,71.857525 L 348.68375,79.030025 L 348.30375,77.462525 L 375.09375,70.290025 z "
   id="polygon103" />
<path
   style="fill:none;stroke:#231f20;stroke-width:1.70000005"
   d="M 23.78375,168.47158 L 13.52375,168.47158 L 13.52375,5.262525 L 23.78375,5.262525 M 348.49375,5.262525 L 358.70625,5.262525 L 358.70625,168.47158 L 348.49375,168.47158"
   id="path105" />
<g
   id="g107"
   transform="matrix(0.95,0,0,0.95,9.62875,4.455025)">
	<path
   style="fill:#231f20"
   d="M 375.388,178.2 L 375.388,168.856 L 376.81,168.856 L 376.81,170.183 C 377.497,169.163 378.489,168.653 379.786,168.653 C 380.349,168.653 380.867,168.755 381.34,168.957 C 381.813,169.159 382.166,169.424 382.402,169.752 C 382.636,170.08 382.801,170.471 382.895,170.922 C 382.954,171.215 382.983,171.728 382.983,172.46 L 382.983,178.2 L 381.405,178.2 L 381.405,172.523 C 381.405,171.879 381.343,171.397 381.219,171.078 C 381.096,170.759 380.876,170.504 380.562,170.314 C 380.248,170.123 379.878,170.028 379.456,170.028 C 378.779,170.028 378.195,170.242 377.704,170.67 C 377.213,171.098 376.968,171.909 376.968,173.104 L 376.968,178.201 L 375.388,178.201 L 375.388,178.2 z "
   id="path109" />
</g>
</svg>